HIERARCHY
ROOT Hips
{
	OFFSET	0.00	0.00	0.00
	CHANNELS 6 Xposition Yposition Zposition Zrotation Xrotation Yrotation
	JOINT LeftHip
	{
		OFFSET	 3.430000	 0.000000	 0.000000
		CHANNELS 3 Zrotation Xrotation Yrotation
		JOINT LeftKnee
		{
			OFFSET	 0.000000	-18.469999	 0.000000
			CHANNELS 3 Zrotation Xrotation Yrotation
			JOINT LeftAnkle
			{
				OFFSET	 0.000000	-17.950001	 0.000000
				CHANNELS 3 Zrotation Xrotation Yrotation
				End Site 
				{
					OFFSET	 0.000000	-3.119996	 0.000000
				}
			}
		}
	}
	JOINT RightHip
	{
		OFFSET	-3.430000	 0.000000	 0.000000
		CHANNELS 3 Zrotation Xrotation Yrotation
		JOINT RightKnee
		{
			OFFSET	 0.000000	-18.809999	 0.000000
			CHANNELS 3 Zrotation Xrotation Yrotation
			JOINT RightAnkle
			{
				OFFSET	 0.000000	-17.570000	 0.000000
				CHANNELS 3 Zrotation Xrotation Yrotation
				End Site 
				{
					OFFSET	 0.000000	-3.250000	 0.000000
				}
			}
		}
	}
	JOINT Chest
	{
		OFFSET	 0.000000	 4.570000	 0.000000
		CHANNELS 3 Zrotation Xrotation Yrotation
		JOINT LeftCollar
		{
			OFFSET	 1.060000	 15.330000	 1.760000
			CHANNELS 3 Zrotation Xrotation Yrotation
			JOINT LeftShoulder
			{
				OFFSET	 5.810000	 0.000000	 0.000000
				CHANNELS 3 Zrotation Xrotation Yrotation
				JOINT LeftElbow
				{
					OFFSET	 0.000000	-12.080000	 0.000000
					CHANNELS 3 Zrotation Xrotation Yrotation
					JOINT LeftWrist
					{
						OFFSET	 0.000000	-9.820000	 0.000000
						CHANNELS 3 Zrotation Xrotation Yrotation
						End Site 
						{
							OFFSET	 0.000000	-7.369996	 0.000000
						}
					}
				}
			}
		}
		JOINT RightCollar
		{
			OFFSET	-1.060000	 15.330000	 1.760000
			CHANNELS 3 Zrotation Xrotation Yrotation
			JOINT RightShoulder
			{
				OFFSET	-6.060000	 0.000000	 0.000000
				CHANNELS 3 Zrotation Xrotation Yrotation
				JOINT RightElbow
				{
					OFFSET	 0.000000	-11.900000	 0.000000
					CHANNELS 3 Zrotation Xrotation Yrotation
					JOINT RightWrist
					{
						OFFSET	 0.000000	-9.520000	 0.000000
						CHANNELS 3 Zrotation Xrotation Yrotation
						End Site 
						{
							OFFSET	 0.000000	-7.140012	 0.000000
						}
					}
				}
			}
		}
		JOINT Neck
		{
			OFFSET	 0.000000	 17.620001	 0.000000
			CHANNELS 3 Zrotation Xrotation Yrotation
			JOINT Head
			{
				OFFSET	 0.000000	 5.190000	 0.000000
				CHANNELS 3 Zrotation Xrotation Yrotation
				End Site 
				{
					OFFSET	 0.000000	 4.140008	 0.000000
				}
			}
		}
	}
}

MOTION
Frames: 28
Frame Time: 0.033333
-17.0457 -4.1208 -36.1166 3.55009 1.86021 142.503 -16.6841 -32.8289 -10.8018 -1.41236 44.5886 4.65805 7.27485 -4.92802 -1.74736 -4.64427 -1.61881 -27.4705 -12.3464 65.157 10.4898 8.08936 20.045 7.95769 -3.64665 9.9247 11.4584 0 0 0 9.53727 -54.3761 -5.41151 -52.1322 -32.1106 -28.638 34.0444 -23.6058 9.54473 0 0 0 -41.7125 -69.8651 18.2325 20.8887 -29.4529 18.1798 -52.9113 -51.7739 13.2525 0 0 0 -11.4658 -32.999 -27.6076 
-14.3965 -3.3223 -36.3803 6.48885 2.779 146.742 -11.973 -26.9725 -10.4927 -1.12327 43.1441 4.0488 7.94187 -4.20041 -4.47354 -7.94006 -8.66452 -27.9629 -13.249 71.5215 10.6015 8.62749 18.509 8.85799 -2.01406 11.2858 8.13126 0 0 0 3.36344 -65.8743 -10.0907 -50.7069 -32.067 -27.7216 34.0347 -26.5058 7.68613 0 0 0 -80.0786 -73.1387 -18.2379 19.3466 -30.2649 16.9947 -56.9163 -54.8275 12.1566 0 0 0 -11.1883 -32.5732 -29.4984 
-11.7522 -2.2173 -36.649 9.52275 3.92362 150.494 -6.5851 -20.9841 -9.27426 -0.341572 39.5358 2.84464 7.17727 -0.894386 -7.25339 -11.1026 -14.4119 -28.073 -15.0185 76.9003 12.9085 8.89168 14.9144 9.10397 0.570054 13.283 4.78592 0 0 0 -6.94811 -77.2539 -19.1071 -47.1094 -31.7352 -26.0026 32.1044 -28.916 4.2672 0 0 0 -116.728 -68.5237 -54.6767 17.2047 -30.1193 16.2778 -60.9056 -58.049 10.8615 0 0 0 -10.933 -31.8339 -30.9827 
-8.7237 -0.236 -37.1111 11.7076 4.62834 154.824 1.60257 -15.5633 -3.29151 -1.20656 34.136 3.28832 5.39337 6.89744 -9.017 -13.8889 -17.5622 -28.3802 -19.8585 78.8068 17.6651 11.7768 13.374 9.94966 2.71972 14.5262 1.23488 0 0 0 39.6045 -88.6753 24.0674 -40.2163 -29.5765 -22.2378 28.8122 -29.9334 1.03093 0 0 0 -136.138 -57.427 -74.945 14.6413 -28.9647 14.5675 -64.5181 -60.2116 10.7485 0 0 0 -9.59256 -30.6702 -32.5382 
-5.6174 2.0668 -37.6811 13.5312 5.1442 159.283 7.90746 -10.5086 2.47605 -1.21804 28.3893 3.73614 3.86043 15.0773 -11.7232 -15.9052 -18.0688 -28.1525 -18.7179 77.6908 17.326 14.8891 13.0391 10.9079 4.34022 14.5473 -1.79228 0 0 0 165.035 -80.701 144.679 -32.9245 -26.5466 -19.293 24.3704 -31.775 -2.13136 0 0 0 -141.192 -43.5584 -75.2563 12.3637 -27.9849 12.9081 -70.1863 -61.7287 9.32709 0 0 0 -8.03734 -28.929 -34.4332 
-2.4408 4.5554 -38.4244 14.8825 6.06813 164.075 11.8161 -5.39997 6.28249 -0.295886 22.7883 3.14577 0.206191 22.6367 -12.6713 -15.9788 -15.531 -26.1138 -12.2198 73.881 12.9304 17.9494 12.6146 9.7472 4.71284 14.0694 -4.31095 0 0 0 170.88 -73.0678 145.503 -25.5519 -22.3667 -15.5734 19.3606 -33.0901 -6.20345 0 0 0 -144.68 -31.0217 -72.5025 9.75095 -26.8907 10.4865 -78.5752 -62.8317 5.25258 0 0 0 -6.08347 -26.3745 -36.6006 
0.8062 7.2123 -39.3536 15.0348 7.26205 169.619 14.6785 -0.668148 9.22403 -0.0379013 17.6939 2.84457 -3.63565 30.3068 -12.6143 -15.0431 -11.143 -23.4101 -6.39068 67.5551 10.5604 20.373 13.1198 6.81623 2.99108 13.2543 -6.68783 0 0 0 172.571 -67.9976 141.949 -17.9622 -16.4834 -11.8052 15.9778 -32.9145 -9.04543 0 0 0 -147.764 -20.6343 -71.7749 7.46855 -25.1128 8.4389 -87.0375 -63.6606 1.25254 0 0 0 -3.59217 -23.4824 -39.3482 
3.7845 9.6206 -40.2802 13.4837 7.81356 175.684 16.5324 2.63262 12.1641 -0.0566729 13.8122 2.72351 -6.9323 37.5664 -11.8012 -12.8616 -4.74824 -20.4651 -1.30868 58.5664 7.89129 22.7666 14.3341 4.38135 -0.94306 11.7742 -8.69073 0 0 0 170.256 -66.3682 135.414 -11.724 -10.8296 -8.75797 15.3611 -31.8487 -10.223 0 0 0 -149.461 -13.2462 -71.2659 5.64487 -22.4635 6.93587 -93.9033 -63.3717 -1.5633 0 0 0 -1.59553 -21.4553 -42.3667 
6.9561 12.0238 -41.2345 11.5575 8.04795 -177.692 18.3343 5.74146 14.7671 -0.195956 10.5395 2.70894 -10.1456 43.8762 -11.0118 -11.0077 2.93615 -19.0848 2.00694 48.7419 7.13088 26.0267 16.0748 2.95171 -5.67818 10.2461 -10.4102 0 0 0 167.91 -65.8852 129.233 -6.13619 -4.60258 -5.79244 15.6814 -30.644 -10.2691 0 0 0 -150.779 -7.38608 -72.0349 4.61474 -19.1011 5.67573 -100.746 -62.6634 -4.51157 0 0 0 0.406427 -19.4265 -45.7698 
10.2283 14.1031 -42.136 9.06415 7.83707 -170.549 20.0458 7.67616 16.415 -0.343335 9.83115 2.88693 -12.4561 47.3835 -10.1467 -9.1998 10.2058 -19.9204 4.13118 38.8675 6.82606 29.2526 19.9491 3.33034 -11.6187 8.88295 -11.4607 0 0 0 161.694 -67.7059 120.07 -2.4916 0.904167 -3.64535 15.607 -29.2015 -10.6185 0 0 0 -150.342 -2.97539 -71.5508 3.75347 -14.7322 4.15389 -101.805 -61.5992 0.0727446 0 0 0 2.27478 -17.6204 -49.7757 
12.845 15.3236 -42.7965 7.06242 8.05283 -164.567 20.6399 9.30192 13.2865 0.202311 10.9905 2.40147 -12.3196 46.1988 -10.0242 -7.37239 15.1177 -19.9449 7.58436 30.7706 5.34162 30.2907 22.4025 2.96429 -16.9324 8.34571 -11.9856 0 0 0 150.011 -73.0186 109.738 -0.940339 3.26994 -3.71255 14.7696 -28.7031 -12.5818 0 0 0 -149.031 1.91725 -68.6712 3.75528 -11.8036 3.17388 -99.9777 -60.318 6.65954 0 0 0 3.13377 -16.0703 -53.4175 
15.3436 16.19 -43.364 5.27536 8.55896 -159.024 22.015 10.8722 10.3981 0.481485 12.5608 1.70369 -12.0903 44.6283 -8.91086 -5.43615 17.9555 -19.7589 9.24006 24.851 5.32721 31.3598 24.1527 2.30377 -21.7181 8.98354 -12.3049 0 0 0 128.569 -77.0752 89.3089 -0.0570952 5.33348 -3.16944 12.5897 -26.4076 -15.3076 0 0 0 -146.676 5.42005 -63.4813 3.44748 -8.38994 2.1201 -84.3467 -52.1631 19.4039 0 0 0 3.58821 -14.741 -56.7778 
18.0357 16.5039 -43.791 3.83899 8.73813 -153.664 24.289 11.5604 9.9771 0.463266 14.5172 2.25658 -8.99077 42.9468 -9.51347 -4.09374 17.7528 -20.2011 9.4401 22.2611 6.08182 30.5011 24.748 2.93397 -25.2041 10.4762 -12.1694 0 0 0 96.5881 -77.4255 58.0604 0.809628 6.50199 -3.11103 9.36032 -23.3924 -17.6365 0 0 0 -142.438 7.4238 -57.9539 2.90391 -4.87717 1.38893 -65.7041 -36.2796 23.9538 0 0 0 3.26495 -13.9718 -59.5219 
20.4339 16.2653 -44.017 3.1088 8.72547 -149.605 26.0902 11.5388 10.5712 0.818108 16.428 2.37522 -6.27203 41.1158 -10.0612 -3.26442 16.9668 -21.2131 8.33522 21.5614 6.30522 28.8412 24.2703 5.51593 -27.1239 11.8331 -11.4672 0 0 0 73.436 -74.6762 35.3887 1.07723 6.3645 -3.25518 5.53463 -19.6506 -20.1511 0 0 0 -138.263 9.07425 -52.5185 2.63447 -1.44883 0.888584 -47.3657 -21.1247 28.7844 0 0 0 2.65027 -13.3239 -61.4525 
22.6764 15.5898 -44.1752 2.52092 8.4298 -146.23 26.8668 11.1279 10.782 1.33459 18.2202 2.23459 -5.44102 38.8721 -10.2225 -3.74685 15.6045 -22.7789 6.95185 21.5025 7.03892 25.9936 23.7701 7.84966 -27.9605 13.231 -10.7032 0 0 0 61.5647 -70.9316 23.7371 0.967558 6.26846 -3.12239 1.57924 -16.3476 -22.8016 0 0 0 -134.054 10.3575 -47.4623 2.33057 1.56537 0.352632 -30.1183 -7.67399 34.5557 0 0 0 2.40868 -12.4622 -62.5585 
24.806 14.5225 -44.2706 2.05791 7.75271 -143.413 26.6351 10.2542 11.1961 1.8659 19.9072 2.06473 -5.80319 36.5422 -10.2361 -5.66396 12.8253 -22.8499 5.72363 21.7717 7.25888 21.6527 22.8712 8.31382 -27.88 14.5141 -10.1653 0 0 0 56.1953 -66.7664 18.5419 0.0978467 4.77471 -3.36058 -1.64293 -12.911 -24.6229 0 0 0 -130.51 12.1732 -43.3133 2.28303 3.5851 0.0442867 -15.1584 3.43499 41.6516 0 0 0 2.29405 -11.5559 -63.1185 
26.6994 12.9279 -44.2782 1.83653 6.66623 -141.498 25.6601 9.14312 12.4964 2.13604 20.8826 1.87639 -6.97921 34.7923 -10.5845 -7.97035 9.55156 -20.9648 4.96089 20.9648 7.1446 17.4709 21.0392 6.21574 -26.4357 15.2989 -9.9501 0 0 0 54.9592 -63.1643 17.9881 -1.61927 1.94262 -3.97399 -4.32965 -10.1048 -25.564 0 0 0 -128.406 14.4993 -40.8319 2.36108 3.39358 0.208065 -1.51572 13.2976 47.0264 0 0 0 1.96822 -10.7591 -62.799 
28.6055 11.0294 -44.2957 1.72124 5.41144 -139.74 24.3274 7.87546 13.8356 2.42229 21.6356 1.44212 -8.0359 33.2189 -11.19 -10.7007 6.24205 -19.6426 4.33476 20.4928 7.64439 13.2241 18.2301 3.54778 -24.1222 16.0022 -9.81247 0 0 0 54.8586 -59.0761 19.4017 -4.46196 -3.01372 -5.45306 -6.60825 -8.34344 -25.5598 0 0 0 -126.675 16.8085 -38.3927 2.72382 1.92819 0.602641 10.2296 22.2209 51.7569 0 0 0 1.41802 -10.1264 -62.373 
30.4161 8.7391 -44.2505 1.97964 4.21364 -138.609 22.6829 6.87386 14.8564 2.54928 22.8019 1.2449 -9.39955 28.0589 -10.2688 -13.4289 2.83832 -18.7832 3.61516 21.471 7.91353 10.231 12.3174 0.984054 -20.6025 16.4107 -9.77739 0 0 0 55.7415 -54.817 22.896 -8.82534 -9.8054 -7.87008 -7.94912 -8.88884 -23.9556 0 0 0 -125.296 18.6291 -37.8062 2.79676 -1.26312 1.40854 19.7694 28.4306 50.0735 0 0 0 0.524035 -9.81459 -61.4373 
31.8726 6.3333 -44.1903 2.59679 3.46218 -138.417 20.8603 6.48239 15.2387 2.55919 24.5801 1.3163 -10.5663 20.1305 -8.73383 -14.9342 -0.304377 -18.3594 2.53477 23.5555 8.5109 8.95298 6.94532 -1.97228 -16.3495 16.3509 -9.74222 0 0 0 57.245 -51.1792 28.6192 -15.5277 -17.0455 -11.8099 -7.72398 -9.75956 -21.5832 0 0 0 -124.51 19.4788 -39.7648 4.17059 -6.80145 3.39633 24.4499 26.0084 46.465 0 0 0 -0.435656 -9.38822 -60.6177 
33.2764 3.9402 -43.9994 3.28458 3.62313 -138.777 19.5727 5.80898 14.4207 3.00889 28.3707 1.25688 -11.6262 11.1867 -5.99634 -15.3076 -3.30943 -17.339 0.785273 26.3971 9.2685 8.42633 2.08981 -3.87528 -11.5753 16.9355 -9.3887 0 0 0 57.2032 -47.1574 34.4161 -24.8199 -23.8903 -17.0982 -6.94831 -11.4744 -18.5421 0 0 0 -121.832 20.0558 -43.632 6.53778 -13.479 6.2389 27.664 22.1581 43.1379 0 0 0 -1.47108 -8.9005 -59.5965 
34.9137 1.5972 -43.7558 3.53739 3.98208 -139.477 18.9682 5.46783 12.0233 2.45438 32.803 1.89175 -10.726 4.47578 -1.76839 -15.4528 -6.3572 -16.264 -0.343316 30.2816 9.69203 7.98058 -2.56722 -5.19703 -7.14867 18.47 -8.87486 0 0 0 53.9869 -41.9665 36.8226 -35.9742 -29.722 -23.7029 -6.91732 -14.1648 -16.8155 0 0 0 -112.066 16.2023 -45.2892 8.97992 -21.3958 9.43163 28.5785 19.1931 40.7271 0 0 0 -2.92012 -8.88465 -58.4366 
36.4531 -0.4469 -43.452 3.71544 4.70356 -140.173 19.2378 4.75581 10.5815 2.11678 37.8095 1.80151 -8.44886 -2.02993 2.17687 -14.713 -9.06308 -15.8022 -1.97931 35.0742 10.3337 8.34899 -7.70432 -5.52916 -2.856 20.36 -8.35614 0 0 0 49.4424 -36.9906 37.61 -47.783 -34.0992 -30.9969 -7.14675 -16.284 -16.0059 0 0 0 -101.417 12.6771 -45.7429 12.1752 -27.9917 12.7861 28.5704 16.445 39.5861 0 0 0 -4.7401 -9.36898 -57.0648 
37.8619 -2.0415 -43.2159 3.5087 5.57687 -140.582 19.9897 3.94649 9.87956 1.86583 43.2072 1.49662 -4.99331 -8.66142 5.72642 -13.6843 -11.1734 -15.7117 -2.9377 40.4696 11.0742 7.31203 -13.9148 -6.62 1.20776 22.7109 -7.91139 0 0 0 44.2852 -32.581 36.813 -59.1761 -37.1496 -38.2346 -7.27082 -18.283 -15.0683 0 0 0 -89.8904 9.31709 -46.155 16.3823 -32.9416 16.0503 31.2421 12.6002 36.232 0 0 0 -6.734 -10.2107 -55.9162 
39.2732 -3.1867 -42.9221 3.06444 6.5325 -140.746 20.7405 2.95929 9.81832 1.318 48.5712 1.50775 -1.18102 -15.1799 10.071 -12.846 -12.6377 -16.5294 -4.57633 45.233 12.1498 6.73255 -19.0305 -6.78885 4.66047 24.9604 -7.76435 0 0 0 39.3474 -28.6635 34.7763 -68.4953 -38.2865 -44.1804 -7.6218 -19.2533 -14.8817 0 0 0 -77.5577 6.12827 -47.2074 20.178 -36.9678 19.1099 34.1691 8.35277 33.8561 0 0 0 -8.45235 -10.8532 -54.7642 
40.5891 -3.8597 -42.691 1.95609 7.30132 -140.417 21.4752 1.53269 10.6427 0.875955 53.2481 1.52882 1.10103 -17.6922 13.2648 -12.6669 -13.5103 -17.6976 -5.65152 48.7429 12.4041 5.72463 -20.2332 -6.34147 7.16409 26.8537 -8.0004 0 0 0 34.7079 -24.8652 31.1915 -74.7767 -38.1194 -48.2264 -8.58507 -19.243 -15.8191 0 0 0 -65.1031 2.84321 -47.4714 24.3799 -39.4832 21.5818 36.6063 5.3073 32.749 0 0 0 -9.54318 -10.6964 -53.8491 
41.7267 -3.9927 -42.4324 0.678807 7.95706 -139.912 22.2649 -0.604744 11.9769 1.27287 56.7474 0.831818 1.66372 -16.3555 14.3093 -13.2418 -13.2793 -18.9596 -5.81279 50.5711 11.9232 5.02334 -20.4322 -5.05338 9.138 28.3294 -8.83115 0 0 0 31.5245 -20.3944 26.1824 -77.6831 -37.9009 -50.146 -10.1201 -19.0351 -17.3232 0 0 0 -52.5086 -0.503202 -45.8876 25.9578 -40.0962 21.7837 38.3232 4.73406 32.231 0 0 0 -9.93259 -10.2917 -52.6675 
42.7463 -3.7667 -42.244 -0.786913 7.95591 -139.057 23.2355 -2.91415 13.7835 0.236501 57.5275 1.19061 1.3921 -13.4872 13.3518 -14.4285 -12.4741 -20.1516 -4.40984 50.2264 11.3272 3.80218 -19.34 -5.73969 10.8906 28.8948 -10.2978 0 0 0 29.7571 -15.6536 20.2103 -77.5716 -37.7565 -50.4328 -10.8815 -19.1406 -19.4471 0 0 0 -40.0399 -4.9736 -42.8903 25.6008 -39.7919 20.4554 39.8141 5.21987 31.7667 0 0 0 -10.5352 -10.0093 -51.7156 
